REM MD5 59e6405053338599a8fe9c5287b208db
FILE "Densha de Go! 2 (Japan) (Rev 1).bin" BINARY
  TRACK 01 MODE2/2352
    INDEX 01 00:00:00
  TRACK 02 AUDIO
    INDEX 00 57:46:59
    INDEX 01 57:48:59
  TRACK 03 AUDIO
    INDEX 00 58:11:26
    INDEX 01 58:13:26
  TRACK 04 AUDIO
    INDEX 00 60:30:08
    INDEX 01 60:32:08
REM LEADOUT 62:56:05
